<svg xmlns="http://www.w3.org/2000/svg" width="64" height="64" viewBox="0 0 64 64"><g id="Layer_2" data-name="Layer 2"><g id="Layer_1-2" data-name="Layer 1"><g id="ns_guestbook"><rect width="64" height="64" style="fill:#ffd243"/><path d="M45.88,13.5H21A4.05,4.05,0,0,0,17,17.55v28.9a4.05,4.05,0,0,0,4.05,4H45.88A1.16,1.16,0,0,0,47,49.34V14.66A1.16,1.16,0,0,0,45.88,13.5ZM44.72,42.41H23.91V15.81H44.72ZM19.28,17.55A1.74,1.74,0,0,1,21,15.81h.57v26.6a4.84,4.84,0,0,0-2.31.38ZM44.72,48.19H21a1.74,1.74,0,1,1,0-3.47h23.7Z" style="fill:#fff"/><circle cx="34.05" cy="24.43" r="3.77" style="fill:#fff"/><path d="M34.31,29.18a7.26,7.26,0,0,0-7.26,7.26H41.58A7.26,7.26,0,0,0,34.31,29.18Z" style="fill:#fff"/></g></g></g></svg>