<?xml version="1.0" standalone="no"?>
<!DOCTYPE svg PUBLIC "-//W3C//DTD SVG 20010904//EN"
 "http://www.w3.org/TR/2001/REC-SVG-20010904/DTD/svg10.dtd">
<svg version="1.0" xmlns="http://www.w3.org/2000/svg"
 width="16.000000pt" height="16.000000pt" viewBox="0 0 16.000000 16.000000"
 preserveAspectRatio="xMidYMid meet">

<g transform="translate(0.000000,16.000000) scale(0.100000,-0.100000)"
fill="#000000" stroke="none">
<path d="M0 110 c0 -43 3 -50 20 -50 13 0 20 -7 20 -20 0 -13 -7 -20 -20 -20
-11 0 -20 -4 -20 -10 0 -6 33 -10 80 -10 l80 0 0 80 0 80 -80 0 -80 0 0 -50z
m98 23 c-5 -26 -38 -29 -38 -4 0 15 6 21 21 21 14 0 19 -5 17 -17z m1 -42 c9
-6 -1 -10 -33 -12 -49 -4 -64 7 -18 14 15 2 29 5 32 5 3 1 11 -2 19 -7z m1
-41 c0 -5 -9 -14 -20 -20 -17 -9 -20 -8 -20 10 0 13 7 20 20 20 11 0 20 -4 20
-10z m50 -10 c0 -5 -4 -10 -10 -10 -5 0 -10 5 -10 10 0 6 5 10 10 10 6 0 10
-4 10 -10z"/>
</g>
</svg>
